<?xml version="1.0" standalone="no"?>
<!DOCTYPE svg PUBLIC "-//W3C//DTD SVG 20010904//EN"
 "http://www.w3.org/TR/2001/REC-SVG-20010904/DTD/svg10.dtd">
<svg version="1.0" xmlns="http://www.w3.org/2000/svg"
 width="668.000000pt" height="360.000000pt" viewBox="0 0 668.000000 360.000000"
 preserveAspectRatio="xMidYMid meet">

<g transform="translate(0.000000,360.000000) scale(0.100000,-0.100000)"
fill="#000000" stroke="none">
<path d="M4220 2776 c-65 -9 -75 -14 -75 -31 0 -19 5 -20 115 -16 96 3 113 1
104 -10 -143 -183 -268 -347 -280 -365 -10 -14 -13 -32 -9 -44 8 -25 25 -24
140 9 45 13 102 20 158 20 69 1 87 4 87 16 0 29 -40 38 -144 32 -56 -3 -109
-8 -118 -12 -11 -4 -18 -3 -18 4 0 6 61 90 135 187 75 97 134 182 132 188 -12
35 -90 43 -227 22z"/>
<path d="M2238 2773 c-24 -6 -23 -26 3 -49 18 -16 20 -27 15 -104 -2 -47 -5
-89 -6 -95 0 -5 4 -32 9 -60 6 -27 14 -72 18 -100 6 -36 13 -51 26 -53 17 -4
19 3 15 90 l-3 93 90 8 c49 4 92 10 94 13 3 3 0 13 -6 22 -9 14 -27 17 -99 17
l-89 0 -3 45 c-2 25 -1 65 3 89 l7 43 120 -3 c130 -4 157 6 99 35 -23 12 -59
16 -153 15 -68 -1 -131 -3 -140 -6z"/>
<path d="M2732 2769 c-27 -10 -25 -30 5 -43 17 -8 21 -22 27 -99 3 -50 6 -119
6 -153 0 -84 22 -138 65 -158 43 -21 67 -19 140 7 100 37 82 85 -19 53 -29 -9
-69 -16 -89 -16 -42 0 -50 17 -45 91 l3 44 67 10 c76 11 86 18 67 41 -10 12
-27 15 -78 12 l-66 -3 -3 75 c-1 41 2 82 8 90 7 12 29 14 104 12 99 -2 121 6
84 32 -17 12 -48 16 -138 15 -63 0 -126 -4 -138 -10z"/>
<path d="M3700 2767 c-24 -8 -35 -18 -35 -32 0 -17 7 -20 45 -20 l45 0 6 -112
c4 -61 12 -134 18 -163 15 -71 14 -79 -14 -92 -28 -13 -33 -43 -8 -52 9 -4 42
-2 72 5 31 6 66 13 79 15 47 9 13 54 -42 54 -19 0 -26 6 -30 28 -17 83 -26
167 -26 245 0 84 1 87 23 87 31 0 51 15 44 34 -5 13 -21 16 -74 15 -37 0 -84
-5 -103 -12z"/>
<path d="M3254 2758 c-5 -7 -8 -87 -8 -178 0 -151 2 -170 23 -212 14 -31 31
-50 49 -56 49 -16 202 27 202 57 0 24 -28 31 -68 17 -22 -8 -61 -18 -85 -21
-67 -10 -72 2 -72 220 -1 156 -3 180 -17 183 -9 2 -20 -3 -24 -10z"/>
<path d="M1490 2284 c-16 -26 -57 -131 -90 -233 -46 -142 -83 -232 -158 -380
l-97 -195 -50 -18 c-64 -23 -62 -23 -58 10 15 100 -103 151 -209 89 -109 -64
-222 -234 -253 -382 -31 -146 -14 -289 41 -346 109 -114 263 42 518 522 52 98
59 107 95 117 21 7 43 12 48 12 5 0 7 -36 5 -87 -5 -97 17 -303 49 -456 39
-191 104 -318 183 -357 57 -27 82 -25 117 9 37 38 38 68 2 77 -21 6 -31 2 -50
-20 l-23 -28 -26 57 c-54 123 -84 330 -83 561 1 93 4 198 8 234 l6 65 45 3
c64 5 70 18 11 26 -30 4 -51 12 -51 19 0 41 46 264 94 456 31 123 56 232 56
242 0 28 -28 49 -66 49 -30 0 -38 -6 -64 -46z m-184 -636 c-3 -18 -8 -54 -11
-80 -5 -41 -10 -48 -37 -57 -17 -6 -34 -9 -37 -5 -5 5 79 174 87 174 2 0 1
-15 -2 -32z m-345 -129 c13 -26 7 -64 -33 -188 -23 -74 -27 -95 -17 -102 7 -4
17 -5 22 -2 11 7 87 163 87 178 0 7 20 11 49 12 l48 1 -44 -82 c-137 -248
-234 -390 -318 -463 -58 -52 -81 -54 -99 -10 -34 82 -28 196 19 344 38 122
133 255 225 317 33 21 47 20 61 -5z"/>
<path d="M5317 2193 c-10 -10 -8 -72 3 -92 5 -10 15 -21 22 -24 10 -3 13 12
13 59 0 52 -3 64 -16 64 -8 0 -19 -3 -22 -7z"/>
<path d="M5689 2171 c-48 -15 -68 -31 -93 -74 -36 -61 -46 -117 -34 -190 10
-57 8 -72 -26 -202 -43 -163 -91 -277 -115 -273 -32 6 -53 127 -58 338 -3 107
-9 203 -14 213 -14 24 -36 21 -55 -8 -22 -33 -36 -32 -58 6 -10 17 -29 35 -42
41 -37 17 -53 -4 -160 -218 -72 -142 -94 -179 -90 -149 18 124 27 292 17 318
-25 65 -79 31 -101 -65 -7 -29 -41 -143 -77 -253 -108 -338 -146 -426 -174
-398 -6 6 -18 47 -26 90 -14 83 -12 210 9 402 11 103 11 104 -11 123 -33 26
-56 22 -85 -14 -23 -30 -26 -31 -43 -16 -66 57 -158 16 -254 -113 -37 -49
-168 -154 -179 -143 -15 15 -68 156 -75 200 -8 54 10 120 37 135 17 9 25 7 47
-15 22 -22 26 -35 26 -79 -1 -28 -4 -71 -9 -94 -7 -36 -6 -43 7 -43 17 0 53
67 63 117 15 77 -44 149 -132 159 -41 5 -55 2 -84 -18 -27 -19 -51 -50 -66
-86 -1 -1 -15 5 -32 15 -28 16 -33 16 -46 3 -19 -19 -122 -213 -166 -310 -34
-76 -57 -113 -47 -75 11 40 30 311 24 337 -4 15 -17 30 -29 34 -42 13 -72 -52
-107 -233 -15 -77 -28 -109 -81 -201 -63 -111 -139 -200 -159 -188 -30 19 -71
141 -71 211 0 60 10 85 32 85 46 0 92 41 131 117 21 40 21 66 2 103 -21 40
-63 60 -126 60 -49 0 -55 -3 -95 -44 -42 -45 -78 -122 -90 -195 -7 -42 -42
-71 -88 -71 -32 0 -32 7 -6 160 22 126 26 231 10 261 -32 59 -126 -16 -155
-124 -23 -87 -17 -200 13 -248 49 -77 49 -73 19 -188 -33 -124 -63 -199 -77
-185 -12 12 -28 143 -36 299 -8 152 -14 175 -47 175 -34 0 -45 -33 -53 -157
-9 -158 -70 -373 -117 -412 -15 -12 -19 -10 -31 20 -27 64 -39 155 -45 344 -6
186 -7 190 -28 193 -43 6 -66 -63 -82 -243 -6 -77 -15 -118 -39 -175 -35 -82
-75 -140 -89 -127 -4 5 -10 126 -13 269 l-5 260 -28 24 c-40 34 -90 32 -123
-3 -49 -53 -124 -199 -188 -363 l-25 -65 0 100 c-1 55 4 153 10 218 9 103 8
122 -6 143 -20 31 -69 33 -85 4 -17 -31 -39 -181 -46 -310 -6 -117 5 -246 27
-293 20 -44 90 -63 108 -29 6 10 30 80 55 155 43 131 114 285 156 337 l20 25
-7 -65 c-13 -103 -7 -260 10 -321 45 -155 161 -204 231 -99 14 22 26 41 26 44
0 2 7 20 15 40 l16 37 32 -63 c36 -70 83 -108 132 -108 44 0 72 34 105 127
l28 78 16 -40 c35 -82 93 -115 142 -81 37 26 113 235 114 311 0 16 10 23 43
32 23 6 52 14 65 18 21 7 22 5 22 -56 0 -120 69 -216 169 -238 93 -20 151 20
228 156 l38 68 6 -85 c6 -90 18 -123 49 -140 40 -22 61 4 100 125 37 113 78
213 131 320 70 140 70 140 113 124 20 -7 36 -19 36 -27 0 -7 20 -65 45 -128
l45 -114 -51 -63 c-116 -142 -153 -293 -91 -376 36 -49 90 -72 156 -68 56 3
62 6 102 51 53 58 68 118 62 242 -3 62 -13 113 -32 167 l-28 79 24 25 c12 14
39 38 59 53 l35 29 -4 -60 c-5 -69 17 -140 51 -164 12 -8 40 -15 63 -15 50 0
73 23 135 136 23 41 42 74 43 74 2 0 4 -42 4 -92 2 -156 43 -267 108 -294 48
-20 77 -17 107 10 35 33 51 67 91 197 l34 114 7 -60 c9 -85 23 -123 50 -141
18 -11 29 -13 43 -5 21 11 22 15 77 176 36 105 148 350 179 388 12 15 18 17
36 7 12 -6 32 -9 43 -6 22 5 22 4 22 -142 0 -119 4 -158 19 -202 36 -104 78
-153 143 -166 42 -8 87 34 112 105 l18 53 14 -43 c15 -44 46 -74 90 -84 53
-13 129 89 175 235 16 51 21 57 73 83 102 51 241 180 218 203 -4 4 -40 -24
-80 -63 -40 -38 -97 -81 -127 -96 -29 -15 -54 -26 -55 -24 -1 1 4 47 12 102
17 114 7 211 -25 254 -39 53 -100 78 -153 62z m105 -85 c11 -23 21 -68 23
-110 5 -80 -16 -217 -33 -223 -20 -7 -72 46 -98 99 -32 63 -34 143 -7 203 39
86 83 97 115 31z m-2958 -313 c-3 -54 -10 -111 -15 -128 l-8 -30 -8 30 c-8 27
7 174 21 210 14 34 17 10 10 -82z m1588 -4 c14 -20 11 -30 -46 -143 -33 -66
-70 -134 -81 -150 l-21 -30 -8 30 c-11 40 6 135 36 200 51 110 88 139 120 93z
m1291 -39 c22 -11 45 -20 52 -20 17 0 18 4 -17 -80 -34 -82 -67 -140 -81 -140
-10 0 -12 144 -3 214 4 25 7 46 8 46 1 0 19 -9 41 -20z m-2540 -106 c-51 -87
-56 -38 -7 66 l26 55 4 -38 c2 -28 -4 -50 -23 -83z m795 -281 c17 -86 17 -197
1 -245 -16 -48 -54 -80 -83 -69 -12 4 -30 23 -40 42 -26 47 -21 156 10 221 31
62 81 130 91 124 5 -3 14 -36 21 -73z"/>
<path d="M4502 2137 c-13 -6 -35 -34 -49 -61 -14 -28 -36 -65 -49 -83 -26 -35
-29 -43 -14 -43 21 0 97 80 124 131 30 54 26 74 -12 56z"/>
<path d="M2319 1839 c-20 -38 5 -109 38 -109 12 0 13 3 4 14 -8 9 -10 32 -5
65 5 43 4 51 -9 51 -9 0 -21 -10 -28 -21z"/>
</g>
</svg>
